<?xml version="1.0" encoding="UTF-8"?>
<svg version="1.1" xmlns="http://www.w3.org/2000/svg" width="512" height="512">
<path d="M0 0 C1.56962397 -0.00483667 1.56962397 -0.00483667 3.17095751 -0.00977105 C4.31928908 -0.00822245 5.46762066 -0.00667385 6.65075016 -0.00507832 C7.87162219 -0.00734387 9.09249421 -0.00960943 10.35036236 -0.01194364 C13.74076 -0.01718543 17.13110467 -0.0179274 20.52150261 -0.01674926 C24.17732603 -0.0165454 27.8331415 -0.02206262 31.48896122 -0.02680683 C38.6516475 -0.03511671 45.81432556 -0.03786181 52.97701626 -0.03841921 C58.79781798 -0.03889416 64.61861698 -0.04094786 70.43941784 -0.04411983 C86.9363793 -0.05292693 103.43333425 -0.05753906 119.93029808 -0.05678936 C120.81983453 -0.0567494 121.70937098 -0.05670945 122.62586308 -0.05666828 C123.96179346 -0.05660696 123.96179346 -0.05660696 125.32471234 -0.0565444 C139.76407826 -0.0561378 154.20341811 -0.06571074 168.64277648 -0.07980665 C183.46304175 -0.09416047 198.2832943 -0.1010774 213.10356671 -0.10021287 C221.42645942 -0.09988058 229.7493248 -0.10264168 238.07221127 -0.11339092 C245.15731795 -0.1224828 252.24238492 -0.12468197 259.32749491 -0.1178815 C262.94327072 -0.11460978 266.55897027 -0.11458303 270.17473888 -0.12323475 C274.09207121 -0.13251179 278.00929136 -0.12634081 281.92662907 -0.11860371 C283.07272992 -0.12374727 284.21883078 -0.12889083 285.39966196 -0.13419026 C286.44868568 -0.12959147 287.49770941 -0.12499267 288.57852173 -0.12025452 C289.48274587 -0.12047188 290.38697 -0.12068925 291.31859487 -0.12091321 C295.02792211 0.24443998 297.87642307 1.23503537 300.63538456 3.76169109 C302.35934993 7.11519115 302.31991292 10.31207571 302.32093143 13.9997282 C302.32854496 14.75907162 302.33615849 15.51841503 302.34400272 16.30076885 C302.35478709 17.90359497 302.35766357 19.50649127 302.353158 21.10934734 C302.35218581 23.55512543 302.39381511 25.99776247 302.43811893 28.44308758 C302.44332658 30.00362794 302.44601412 31.56417916 302.44593143 33.1247282 C302.4623267 33.85195583 302.47872196 34.57918346 302.49561405 35.3284483 C302.44571554 39.01470088 301.92971898 41.01407379 299.85144901 44.08468914 C295.86844393 46.79903335 292.98804574 46.85934569 288.27015018 46.8356657 C287.45597126 46.85078701 286.64179234 46.86590832 285.80294132 46.88148785 C283.21490508 46.92430882 280.62803638 46.93319693 278.03968143 46.94113445 C276.27988489 46.96428328 274.52011603 46.98964943 272.76038456 47.01730633 C268.45754724 47.08010277 264.15543643 47.11248181 259.85218143 47.12863445 C260.51218143 48.11863445 261.17218143 49.10863445 261.85218143 50.12863445 C262.04802113 52.85117573 262.132259 55.46887423 262.11780643 58.19113445 C262.11971989 58.97883221 262.12163334 59.76652996 262.12360477 60.57809734 C262.12496491 62.24240724 262.12128043 63.9067278 262.11292362 65.57101727 C262.10222143 68.11911115 262.11282444 70.66650001 262.12561893 73.21457195 C262.12429731 74.83176101 262.12173485 76.44894963 262.11780643 78.06613445 C262.1218549 78.82869549 262.12590336 79.59125652 262.1300745 80.37692547 C262.09649081 84.1636212 262.00452633 85.90011711 259.85218143 89.12863445 C272.88731409 90.08272083 272.88731409 90.08272083 285.91077518 89.39425945 C327.87073647 85.60504648 370.33884259 99.93277276 402.48377323 126.71383953 C405.32132565 129.13325863 408.09474509 131.61866035 410.85218143 134.12863445 C411.64882206 134.84148602 412.44546268 135.55433758 413.26624393 136.2887907 C434.19721703 156.04001804 448.5976123 183.53399891 455.85218143 211.12863445 C456.06390995 211.91673504 456.27563847 212.70483562 456.493783 213.51681805 C466.83526188 253.87480813 459.0232393 298.48936465 438.50843143 334.2809782 C433.13391547 343.34698325 426.87689874 351.29814075 419.85218143 359.12863445 C419.07874393 360.02324383 418.30530643 360.9178532 417.50843143 361.83957195 C390.49028309 392.75822762 350.72616819 410.61702027 310.08973026 413.72116375 C267.52945354 416.41538089 224.32313385 403.22638404 192.07874393 374.8747282 C188.07418508 371.25124304 184.11545862 367.5999 180.59402561 363.49869156 C177.21321272 360.57630827 175.66265807 360.50707887 171.2482996 360.51631451 C170.59827048 360.51078109 169.94824136 360.50524768 169.27851439 360.49954659 C167.10775739 360.48700008 164.93884902 360.50992362 162.76819706 360.53268719 C161.20908537 360.53078277 159.64997505 360.52662625 158.09087467 360.5203886 C154.73713191 360.51160218 151.38390676 360.51834428 148.03020573 360.53704929 C142.7271173 360.56614321 137.42447476 360.55834827 132.12134647 360.54515362 C121.82222106 360.52449138 111.52331149 360.5400904 101.22419834 360.56062603 C88.11459754 360.58576976 75.00511679 360.59863962 61.8955121 360.57066971 C56.62390035 360.56071263 51.35282265 360.57085247 46.08126926 360.59657753 C42.80215307 360.60874646 39.52320376 360.60454694 36.24408245 360.59599972 C34.72391046 360.59546452 33.20371809 360.60180533 31.68360806 360.6155405 C29.60727711 360.63339031 27.53239972 360.62666275 25.45606327 360.61397076 C23.71393684 360.61818114 23.71393684 360.61818114 21.93661594 360.62247658 C18.17339356 360.0199552 16.52072808 358.80637819 13.85218143 356.12863445 C12.0806582 350.81406474 12.62657854 345.07115833 12.61194706 339.5050993 C12.60224615 337.26855492 12.57121372 335.03293184 12.53968143 332.7966032 C12.53315028 331.36822322 12.52790025 329.93983669 12.52405643 328.51144695 C12.51471073 327.21610027 12.50536503 325.92075359 12.49573612 324.58615398 C12.8710459 320.94564916 13.72460799 319.06019193 15.85218143 316.12863445 C15.14609745 316.11928875 14.44001347 316.10994305 13.712533 316.10031414 C10.50837598 316.04657787 7.30567386 315.96293689 4.10218143 315.87863445 C2.99100956 315.86445477 1.87983768 315.85027508 0.73499393 315.8356657 C-0.86988888 315.78732586 -0.86988888 315.78732586 -2.50719357 315.73800945 C-3.98397579 315.70658855 -3.98397579 315.70658855 -5.490592 315.67453289 C-8.8508125 314.98421196 -10.03575638 313.78348818 -12.14781857 311.12863445 C-13.9193418 305.81406474 -13.37342146 300.07115833 -13.38805294 294.5050993 C-13.39775385 292.26855492 -13.42878628 290.03293184 -13.46031857 287.7966032 C-13.46684972 286.36822322 -13.47209975 284.93983669 -13.47594357 283.51144695 C-13.48528927 282.21610027 -13.49463497 280.92075359 -13.50426388 279.58615398 C-13.1289541 275.94564916 -12.27539201 274.06019193 -10.14781857 271.12863445 C-11.57046017 271.1146159 -11.57046017 271.1146159 -13.021842 271.10031414 C-16.54846615 271.05624214 -20.07388059 270.99460662 -23.599967 270.92111492 C-25.12459288 270.89292911 -26.64936422 270.87170256 -28.17418575 270.85763836 C-30.36927792 270.83617396 -32.56262568 270.78951276 -34.75719357 270.73800945 C-36.73671017 270.70658855 -36.73671017 270.70658855 -38.756217 270.67453289 C-42.66055667 270.04610621 -43.85440171 269.29799942 -46.14781857 266.12863445 C-48.21668032 261.01897622 -47.33375882 254.69732599 -47.3331213 249.28415203 C-47.33530768 247.20150594 -47.35348446 245.11939008 -47.37242794 243.03683758 C-47.37436153 241.71748211 -47.37629513 240.39812664 -47.37828732 239.0387907 C-47.3823962 237.83359783 -47.38650509 236.62840496 -47.39073849 235.38669109 C-47.14917574 232.14683703 -46.67478486 229.98331462 -45.14781857 227.12863445 C-41.52329742 224.71228702 -38.83821409 224.82238626 -34.64708614 224.8097868 C-33.50526127 224.79471836 -33.50526127 224.79471836 -32.34036922 224.77934551 C-29.82437043 224.74845561 -27.30847833 224.73146241 -24.79234982 224.71457195 C-23.04784886 224.69586496 -21.303357 224.6762919 -19.55887508 224.65588665 C-14.96730052 224.60450988 -10.37569661 224.56491389 -5.783988 224.52774334 C-1.09855003 224.48773841 3.58676525 224.43663007 8.27210331 224.38644695 C17.46537657 224.28962204 26.65871901 224.20523829 35.85218143 224.12863445 C35.36486042 223.54106365 34.87753941 222.95349285 34.37545109 222.34811687 C32.19966 219.17787708 32.44082075 216.15037463 32.48890018 212.44113445 C32.48815243 211.33185589 32.48815243 211.33185589 32.48738956 210.20016766 C32.48972496 208.64016304 32.49942204 207.08015429 32.51599979 205.52023602 C32.53960103 203.13675408 32.53655596 200.75439116 32.52991581 198.37082195 C32.53549285 196.85258614 32.54260289 195.33435502 32.55140018 193.81613445 C32.55048878 193.10561932 32.54957737 192.39510418 32.54863834 191.66305828 C32.60102726 187.99445016 32.83726945 185.24901569 34.85218143 182.12863445 C33.6363538 182.11405193 32.42052616 182.09946941 31.16785526 182.084445 C26.64819066 182.02638347 22.12902016 181.94915086 17.60974979 181.86618328 C15.65540441 181.83297091 13.70096396 181.8049275 11.74646854 181.78219891 C8.93363862 181.74858512 6.12167697 181.69626591 3.30921268 181.6403532 C2.43819416 181.63396328 1.56717564 181.62757336 0.66976261 181.6209898 C-4.06116173 181.50685485 -7.3331204 181.23360003 -11.14781857 178.12863445 C-13.58032801 174.47987029 -13.43730161 171.75635329 -13.41344357 167.5387907 C-13.41631374 166.42738972 -13.41631374 166.42738972 -13.41924191 165.29353619 C-13.4206019 163.72757916 -13.41691841 162.16161079 -13.40856075 160.59567547 C-13.3978734 158.20340797 -13.4084541 155.81189399 -13.42125607 153.41965008 C-13.41993414 151.89686197 -13.41737106 150.37407432 -13.41344357 148.8512907 C-13.41749203 148.13763851 -13.42154049 147.42398632 -13.42571163 146.68870831 C-13.39110585 143.006979 -13.17622859 140.2583684 -11.14781857 137.12863445 C-12.38918575 137.09125164 -13.63055294 137.05386883 -14.90953732 137.0153532 C-16.55149368 136.94967495 -18.19341943 136.88322825 -19.83531857 136.81613445 C-20.65193966 136.79357586 -21.46856075 136.77101727 -22.30992794 136.74777508 C-27.01745961 136.53812792 -30.32943307 136.17882405 -34.14781857 133.12863445 C-35.72016754 129.9839365 -35.31078262 126.6164641 -35.31578732 123.1637907 C-35.31911572 122.374678 -35.32244411 121.5855653 -35.32587337 120.77254009 C-35.33093954 119.10226303 -35.3332818 117.43197583 -35.3331213 115.76169109 C-35.33530688 113.2047996 -35.35346303 110.64834014 -35.37242794 108.09152508 C-35.37536209 106.46978176 -35.37734674 104.8480364 -35.37828732 103.2262907 C-35.38547283 102.46059261 -35.39265835 101.69489452 -35.40006161 100.90599346 C-35.38368614 97.10535672 -35.30839633 95.3695011 -33.14781857 92.12863445 C-34.10043575 92.1028532 -35.05305294 92.07707195 -36.03453732 92.05050945 C-37.91592403 91.96543133 -37.91592403 91.96543133 -39.83531857 91.87863445 C-41.69736935 91.80902508 -41.69736935 91.80902508 -43.59703732 91.73800945 C-47.7834836 91.01954342 -49.25994013 90.22339841 -52.14781857 87.12863445 C-52.64379913 84.15236733 -52.82749348 81.75688547 -52.77672482 78.78488445 C-52.77913677 77.97877728 -52.78154873 77.1726701 -52.78403378 76.34213543 C-52.78305597 74.64087273 -52.76967784 72.93957796 -52.74474239 71.23849773 C-52.71042855 68.63697326 -52.7240846 66.03884575 -52.74352169 63.4372282 C-52.73662301 61.78226585 -52.72695042 60.12731226 -52.71422482 58.47238445 C-52.71918468 57.69624798 -52.72414455 56.9201115 -52.72925472 56.12045574 C-52.65153479 52.54983661 -52.45966265 50.53002661 -50.23741817 47.66965008 C-46.33671931 44.79300429 -42.99650221 44.91623592 -38.29625607 44.8122282 C-37.52222439 44.79144711 -36.74819271 44.77066601 -35.95070553 44.74925518 C-33.47483465 44.68379997 -30.99885655 44.62489359 -28.52281857 44.56613445 C-26.84572408 44.52294539 -25.1686405 44.47933097 -23.49156857 44.43527508 C-19.37709549 44.32812274 -15.26251442 44.226844 -11.14781857 44.12863445 C-11.47088985 43.62646404 -11.79396114 43.12429363 -12.12682247 42.60690594 C-13.510381 39.24858394 -13.47250515 36.05217417 -13.48375607 32.4762907 C-13.49041286 31.73914333 -13.49706966 31.00199596 -13.50392818 30.2425108 C-13.5140319 28.68675505 -13.51874591 27.13095617 -13.51842403 25.57516766 C-13.52279801 23.20228628 -13.55913947 20.8312652 -13.59703732 18.45871258 C-13.60290598 16.94374495 -13.60687504 15.42876853 -13.60875607 13.9137907 C-13.6231271 13.20843685 -13.63749813 12.503083 -13.65230465 11.77635479 C-13.6198871 8.26016469 -13.21015424 6.23110418 -11.36900997 3.20456219 C-7.87501711 -0.06092708 -4.65083229 0.00362383 0 0 Z " fill="#FEC008" transform="translate(52.14781856536865,48.871365547180176)"/>
<path d="M0 0 C23.5145523 20.49005541 40.0650874 50.91846901 42.58203125 82.171875 C44.48170348 119.86797951 36.18529298 153.56512943 10.73632812 182.25244141 C-10.12089507 205.01397364 -39.17842084 221.79629501 -70.41796875 224.171875 C-74.9457961 224.33761962 -79.46949907 224.39946533 -83.99975586 224.41210938 C-86.08423383 224.42177652 -88.16770672 224.45287381 -90.25195312 224.484375 C-99.29368352 224.55521158 -107.63932082 223.43244479 -116.41796875 221.171875 C-117.60245605 220.88175537 -118.78694336 220.59163574 -120.00732422 220.29272461 C-138.15612116 215.74109102 -154.22960138 206.17914628 -168.41796875 194.171875 C-169.65353516 193.13933594 -169.65353516 193.13933594 -170.9140625 192.0859375 C-195.11231844 171.17200023 -210.50973673 139.95196302 -213.41796875 108.171875 C-215.49526407 72.9177766 -205.74082145 39.3721038 -182.37939453 12.54882812 C-181.07041646 11.07951988 -179.74466217 9.62520734 -178.41796875 8.171875 C-177.7528125 7.43582031 -177.08765625 6.69976562 -176.40234375 5.94140625 C-166.89105889 -4.06942088 -155.51306961 -11.3754755 -143.41796875 -17.828125 C-142.5671875 -18.29992187 -141.71640625 -18.77171875 -140.83984375 -19.2578125 C-131.5358784 -24.2178735 -120.78534002 -27.83959755 -110.41796875 -29.828125 C-109.48855469 -30.01246094 -108.55914062 -30.19679687 -107.6015625 -30.38671875 C-68.59138251 -37.0649668 -30.0284439 -25.27032222 0 0 Z " fill="#FFE470" transform="translate(435.41796875,203.828125)"/>
<path d="M0 0 C23.5145523 20.49005541 40.0650874 50.91846901 42.58203125 82.171875 C44.48170348 119.86797951 36.18529298 153.56512943 10.73632812 182.25244141 C-10.12089507 205.01397364 -39.17842084 221.79629501 -70.41796875 224.171875 C-74.9457961 224.33761962 -79.46949907 224.39946533 -83.99975586 224.41210938 C-86.08423383 224.42177652 -88.16770672 224.45287381 -90.25195312 224.484375 C-99.29368352 224.55521158 -107.63932082 223.43244479 -116.41796875 221.171875 C-117.60245605 220.88175537 -118.78694336 220.59163574 -120.00732422 220.29272461 C-138.15612116 215.74109102 -154.22960138 206.17914628 -168.41796875 194.171875 C-169.65353516 193.13933594 -169.65353516 193.13933594 -170.9140625 192.0859375 C-195.11231844 171.17200023 -210.50973673 139.95196302 -213.41796875 108.171875 C-215.49526407 72.9177766 -205.74082145 39.3721038 -182.37939453 12.54882812 C-181.07041646 11.07951988 -179.74466217 9.62520734 -178.41796875 8.171875 C-177.7528125 7.43582031 -177.08765625 6.69976562 -176.40234375 5.94140625 C-166.89105889 -4.06942088 -155.51306961 -11.3754755 -143.41796875 -17.828125 C-142.5671875 -18.29992187 -141.71640625 -18.77171875 -140.83984375 -19.2578125 C-131.5358784 -24.2178735 -120.78534002 -27.83959755 -110.41796875 -29.828125 C-109.48855469 -30.01246094 -108.55914062 -30.19679687 -107.6015625 -30.38671875 C-68.59138251 -37.0649668 -30.0284439 -25.27032222 0 0 Z M-112.41796875 -8.828125 C-114.04992187 -8.42787109 -114.04992187 -8.42787109 -115.71484375 -8.01953125 C-141.67554408 -0.89616835 -164.71557942 17.10530454 -178.41796875 40.171875 C-192.36376281 64.72666125 -198.40520569 93.89533198 -191.35546875 121.734375 C-190.47250299 124.91642573 -189.48337726 128.04649848 -188.41796875 131.171875 C-188.04043457 132.29045898 -188.04043457 132.29045898 -187.65527344 133.43164062 C-181.96212372 149.74484196 -172.56691817 163.02292558 -160.41796875 175.171875 C-159.19980469 176.39003906 -159.19980469 176.39003906 -157.95703125 177.6328125 C-144.62693446 190.27267774 -127.10497179 198.60674711 -109.41796875 203.171875 C-108.19013672 203.51025391 -108.19013672 203.51025391 -106.9375 203.85546875 C-79.78524566 210.11473247 -48.71358699 202.61898174 -25.41796875 188.171875 C-21.89746492 185.69230117 -18.64477828 183.01969683 -15.41796875 180.171875 C-14.5878125 179.47320312 -13.75765625 178.77453125 -12.90234375 178.0546875 C7.76798919 160.23762138 21.63299103 133.51494891 23.82080078 106.18969727 C24.76026087 84.59771506 21.41929386 65.44686265 11.58203125 46.171875 C11.04835938 45.11742187 10.5146875 44.06296875 9.96484375 42.9765625 C5.51376518 34.8198013 -0.21974912 28.02967194 -6.41796875 21.171875 C-7.07539063 20.43066406 -7.7328125 19.68945312 -8.41015625 18.92578125 C-21.35906237 5.11546722 -39.24127138 -4.18296901 -57.41796875 -8.828125 C-58.42085937 -9.12589844 -59.42375 -9.42367187 -60.45703125 -9.73046875 C-77.09216459 -14.12198205 -95.86149184 -13.11573281 -112.41796875 -8.828125 Z " fill="#FFE46F" transform="translate(435.41796875,203.828125)"/>
<path d="M0 0 C27.45749164 24.52708683 44.05966967 55.84982076 48.671875 92.38671875 C48.85721239 96.84478378 48.85769195 101.3013779 48.85717773 105.76269531 C48.85934087 107.85373025 48.87747134 109.94421594 48.89648438 112.03515625 C48.95216408 124.82129382 47.80541061 137.2538728 43.921875 149.51171875 C43.52826782 150.78317749 43.52826782 150.78317749 43.12670898 152.08032227 C40.87596123 159.14556119 38.07850732 165.7965585 34.671875 172.38671875 C34.14980469 173.43859375 33.62773437 174.49046875 33.08984375 175.57421875 C15.6259697 209.60218879 -15.25918555 234.25932099 -51.328125 246.38671875 C-65.04618253 250.4808677 -78.7084453 251.77315444 -92.953125 251.69921875 C-93.70102295 251.6970636 -94.4489209 251.69490845 -95.21948242 251.69268799 C-120.19833037 251.57732919 -141.3777026 246.36561539 -163.328125 234.38671875 C-164.42125 233.79761719 -165.514375 233.20851563 -166.640625 232.6015625 C-177.37411744 226.59135436 -186.34856481 218.72806227 -195.328125 210.38671875 C-195.99457031 209.78601563 -196.66101563 209.1853125 -197.34765625 208.56640625 C-214.74123709 192.20014485 -226.27193944 169.03418896 -232.578125 146.32421875 C-232.94780396 144.99559814 -232.94780396 144.99559814 -233.32495117 143.64013672 C-243.12538463 106.68101848 -236.3558555 69.51980325 -218.328125 36.38671875 C-212.21585798 25.97845158 -204.72981984 16.99814753 -196.328125 8.38671875 C-195.56371094 7.54882812 -194.79929688 6.7109375 -194.01171875 5.84765625 C-143.26287798 -48.2500928 -54.50050855 -46.19643698 0 0 Z M-150.328125 -6.61328125 C-151.36453125 -6.10023438 -152.4009375 -5.5871875 -153.46875 -5.05859375 C-182.92256815 10.08708999 -205.77649341 36.96911375 -216.203125 68.38671875 C-216.92756468 70.71510182 -217.63854461 73.04777466 -218.328125 75.38671875 C-218.55113281 76.09699219 -218.77414063 76.80726563 -219.00390625 77.5390625 C-227.94036157 108.71433031 -221.33563645 143.55563155 -206.28051758 171.61791992 C-202.26753728 178.80017915 -197.67788232 185.13439501 -192.328125 191.38671875 C-191.48765625 192.38960937 -190.6471875 193.3925 -189.78125 194.42578125 C-170.18202054 217.1962291 -141.16663336 232.68835882 -111.328125 236.38671875 C-106.85174624 236.57197613 -102.3768314 236.57253632 -97.8972168 236.57202148 C-95.79519784 236.57418827 -93.69372197 236.59232962 -91.59179688 236.61132812 C-56.73255107 236.76024011 -26.62786297 222.46664239 -1.890625 198.38671875 C22.20138937 174.28565177 33.83754156 142.56566295 34.046875 108.88671875 C33.84799382 73.24812553 20.50659093 41.92314381 -4.328125 16.38671875 C-28.94087482 -7.8114212 -62.97369666 -20.23199315 -97.19165039 -19.96655273 C-115.75664092 -19.51055904 -133.74317659 -15.00162221 -150.328125 -6.61328125 Z " fill="#FFA81E" transform="translate(444.328125,191.61328125)"/>
<path d="M0 0 C3.90508768 3.32854071 7.57482676 6.86595217 11.16992188 10.52441406 C11.91757812 11.27335937 12.66523438 12.02230469 13.43554688 12.79394531 C34.79522566 35.45706907 42.20665865 64.93625295 41.34912109 95.28710938 C39.78688125 123.50958943 24.21300745 150.05153372 3.70117188 168.77832031 C-20.27898092 188.67094707 -50.06955367 196.77545262 -80.83007812 194.52441406 C-109.08008793 190.95307359 -135.81748179 175.55565747 -153.45507812 153.27832031 C-172.5713904 128.13326747 -178.8444284 98.1610775 -175.20507812 67.02441406 C-170.17209836 38.74885415 -153.7553911 13.4788014 -130.51757812 -3.28808594 C-119.4397135 -10.55751701 -107.73868704 -16.30961195 -94.83007812 -19.47558594 C-93.68023437 -19.77335938 -92.53039062 -20.07113281 -91.34570312 -20.37792969 C-59.59163922 -27.52588806 -25.45914531 -20.52762463 0 0 Z M-136.30273438 29.33300781 C-152.06937184 49.26441744 -157.7985205 72.39206062 -155.83007812 97.52441406 C-154.33553348 107.16609099 -151.40582282 116.89251473 -146.83007812 125.52441406 C-146.44722656 126.34296875 -146.064375 127.16152344 -145.66992188 128.00488281 C-135.52186772 148.50809428 -116.40343896 162.90601562 -95.15429688 170.49316406 C-72.36556414 177.56275918 -49.40922485 175.67930664 -27.83007812 165.52441406 C-19.14253701 160.8910588 -11.87969941 155.36116934 -4.83007812 148.52441406 C-4.21777344 147.98558594 -3.60546875 147.44675781 -2.97460938 146.89160156 C6.13422908 138.59568004 12.03924239 126.95317153 16.16992188 115.52441406 C16.46511719 114.74582031 16.7603125 113.96722656 17.06445312 113.16503906 C24.5438067 92.38496311 22.56673398 69.30748834 13.56445312 49.34472656 C1.71009027 25.37035687 -16.74213962 9.36066547 -42.04492188 0.71191406 C-76.54670206 -10.11217384 -112.87850941 2.7263447 -136.30273438 29.33300781 Z " fill="#FFCE01" transform="translate(417.830078125,214.4755859375)"/>
<path d="M0 0 C2.203125 1.578125 2.203125 1.578125 4 4 C4.390625 7.453125 4.390625 7.453125 4.25 11.25 C4.21390625 12.51328125 4.1778125 13.7765625 4.140625 15.078125 C4.07101562 16.52445313 4.07101562 16.52445313 4 18 C6.31 18 8.62 18 11 18 C10.8453125 16.700625 10.8453125 16.700625 10.6875 15.375 C11.11062279 10.80527384 12.64701358 9.06142239 16 6 C19.77173773 5.21422131 21.44571205 5.72285603 24.875 7.4375 C27.65656376 10.79173865 27.41425212 12.94753381 27.17578125 17.171875 C27.08876953 18.07679688 27.08876953 18.07679688 27 19 C27.73347656 19.11472656 28.46695313 19.22945312 29.22265625 19.34765625 C34.86483024 20.67289262 39.42159849 23.88671399 42.87890625 28.515625 C47.28426574 35.77650667 48.86267776 41.48673263 48 50 C46.95591616 53.17970988 45.53727398 56.03658027 44 59 C43.67 59.99 43.34 60.98 43 62 C43.50789063 62.36609375 44.01578125 62.7321875 44.5390625 63.109375 C51.13744209 68.29911175 55.94069352 74.53116842 57.32958984 83.01269531 C58.42622363 93.90876831 56.81988439 103.67329805 50.05078125 112.55859375 C44.9804317 118.1022973 39.21554158 121.82440489 32 124 C29.171875 124.12109375 29.171875 124.12109375 27 124 C27.1546875 125.8253125 27.1546875 125.8253125 27.3125 127.6875 C27.30621859 131.22393408 27.04353719 131.93853572 24.875 135 C22 137 22 137 18.9375 137.5625 C16 137 16 137 13.625 135.5625 C11.23826634 131.79880462 11.66612069 128.34043107 12 124 C9.36 124 6.72 124 4 124 C4.04640625 124.95261719 4.0928125 125.90523438 4.140625 126.88671875 C4.19476563 128.76810547 4.19476563 128.76810547 4.25 130.6875 C4.29640625 131.92886719 4.3428125 133.17023438 4.390625 134.44921875 C3.9354262 138.58697586 3.00259727 140.16776286 0 143 C-3.86073473 143.62047523 -5.96284397 143.73005486 -9.203125 141.44921875 C-11.64968809 138.11444689 -11.4446791 135.21097097 -11.25 131.25 C-11.23195313 130.55261719 -11.21390625 129.85523438 -11.1953125 129.13671875 C-11.14838554 127.42388461 -11.07664605 125.71176176 -11 124 C-11.81984375 124.05800781 -12.6396875 124.11601562 -13.484375 124.17578125 C-22.25933546 124.543154 -22.25933546 124.543154 -25.8125 121.9375 C-27.36411552 118.0992932 -27.1708535 115.95163055 -26 112 C-25.33063416 111.58630661 -24.66126831 111.17261322 -23.97161865 110.74638367 C-21.65918176 109.07019818 -21.65918176 109.07019818 -21.48101807 105.75398254 C-21.45168889 104.39722945 -21.44434778 103.03989634 -21.45410156 101.68286133 C-21.44376389 100.94115189 -21.43342621 100.19944244 -21.42277527 99.43525696 C-21.39328031 96.98396187 -21.39184676 94.53349006 -21.390625 92.08203125 C-21.37564778 90.38236408 -21.3589216 88.68271149 -21.34051514 86.983078 C-21.29677753 82.5098098 -21.27682847 78.03673792 -21.26177979 73.56329346 C-21.24223168 68.99845743 -21.20025917 64.43383416 -21.16015625 59.86914062 C-21.08478484 50.91282594 -21.03453545 41.9565587 -21 33 C-21.61875 32.896875 -22.2375 32.79375 -22.875 32.6875 C-25 32 -25 32 -27 29 C-27.5 26.125 -27.5 26.125 -27 23 C-24.23186578 19.64910068 -22.71271031 18.20134541 -18.375 17.69140625 C-15.89619089 17.68788521 -13.46837289 17.78048067 -11 18 C-11.04640625 17.03578125 -11.0928125 16.0715625 -11.140625 15.078125 C-11.17671875 13.81484375 -11.2128125 12.5515625 -11.25 11.25 C-11.29640625 9.99703125 -11.3428125 8.7440625 -11.390625 7.453125 C-11 4 -11 4 -9.203125 1.578125 C-5.9936245 -0.72087891 -3.84919009 -0.5498843 0 0 Z " fill="#FF8801" transform="translate(335,229)"/>
<path d="M0 0 C0.92307141 -0.00427212 1.84614281 -0.00854425 2.79718608 -0.01294583 C5.89154408 -0.02118447 8.98454792 0.00632417 12.07878113 0.03364563 C14.29623889 0.03505591 16.51369899 0.03426452 18.7311554 0.03143311 C24.75359854 0.02999677 30.77554517 0.05942237 36.79787278 0.09430289 C43.09059533 0.12552984 49.38332887 0.12849426 55.67611694 0.13442993 C66.23897242 0.14821173 76.80166489 0.17945638 87.36442566 0.22407532 C98.24332264 0.26998184 109.1221701 0.30536835 120.00114441 0.32661438 C120.6719048 0.327928 121.34266518 0.32924161 122.03375164 0.33059504 C125.39881419 0.3371203 128.76387709 0.34343882 132.12894022 0.34965456 C160.03837292 0.40193701 187.94760229 0.48990036 215.8568573 0.60127258 C212.91014111 3.57927542 210.03284904 6.35231812 206.6693573 8.85127258 C197.22181331 16.09699227 185.68374204 25.10026963 179.17094326 35.22119141 C176.57303215 37.89319212 175.18692725 38.20053922 171.52181631 38.28683853 C170.81705284 38.27821163 170.11228937 38.26958473 169.38616943 38.26069641 C168.25314885 38.27640497 168.25314885 38.27640497 167.09723896 38.29243088 C164.56431488 38.32141955 162.03274289 38.31479358 159.49967957 38.30830383 C157.6845486 38.32166635 155.86943235 38.33717616 154.05433655 38.35467529 C149.12250002 38.39570984 144.19104544 38.40550568 139.25905728 38.40896606 C134.10032366 38.41700145 128.94175335 38.45083238 123.78311157 38.4811554 C115.11848491 38.52812093 106.45396784 38.55542346 97.78923035 38.57051086 C87.76999943 38.58813901 77.75120746 38.63389012 67.73215634 38.6954031 C58.09786295 38.75414004 48.46357536 38.7956708 38.82916069 38.82841492 C34.7275619 38.842496 30.62604479 38.86212217 26.52449226 38.88609314 C21.69411845 38.91334943 16.86393759 38.92539075 12.03348923 38.92566109 C10.26014538 38.92812426 8.48680016 38.93571899 6.71350288 38.94880486 C4.2936212 38.96578068 1.8744453 38.96413626 -0.54547119 38.9577179 C-1.24800394 38.96693677 -1.95053669 38.97615564 -2.67435831 38.98565388 C-6.99160892 38.94874564 -9.70549007 38.24041893 -13.1431427 35.60127258 C-15.42463009 31.0382978 -14.46334187 24.79806699 -14.5181427 19.78877258 C-14.57421692 17.86194641 -14.57421692 17.86194641 -14.63142395 15.89619446 C-14.64302551 14.65804993 -14.65462708 13.4199054 -14.6665802 12.14424133 C-14.68639954 11.01010803 -14.70621887 9.87597473 -14.72663879 8.70747375 C-13.16839812 0.41228711 -7.11054986 -0.12029228 0 0 Z " fill="#FECA00" transform="translate(31.143142700195313,146.3987274169922)"/>
<path d="M0 0 C1.31673203 -0.00274933 2.63346405 -0.00549866 3.99009705 -0.0083313 C5.45265288 -0.00125294 6.91520781 0.00601668 8.37776184 0.01345825 C9.91513054 0.01402229 11.45249978 0.01370595 12.98986816 0.01257324 C17.16729025 0.01199843 21.34459794 0.02377343 25.5219934 0.03772116 C29.88620791 0.0502072 34.25042492 0.05139734 38.61465454 0.05377197 C46.88066675 0.059993 55.14662618 0.07641224 63.41261512 0.09647095 C72.82241361 0.11881059 82.23221459 0.12981851 91.64203298 0.13986182 C111.00034906 0.16077793 130.35859278 0.19746193 149.71687317 0.24050903 C149.71687317 12.78050903 149.71687317 25.32050903 149.71687317 38.24050903 C129.18531004 38.33076071 108.65390721 38.40446264 88.1221962 38.44775772 C78.58922989 38.4683936 69.05639546 38.49653375 59.52351379 38.54226685 C51.21581967 38.58210326 42.90822104 38.60793438 34.60043406 38.61686301 C30.20041888 38.6220832 25.80067692 38.63437366 21.40074921 38.66342926 C17.26064152 38.690548 13.12092003 38.69896129 8.98073196 38.69293976 C7.46013669 38.69404159 5.93952872 38.7020168 4.41901016 38.71733093 C2.34425789 38.73720481 0.27096765 38.73245955 -1.80381775 38.7215271 C-2.96527691 38.72521427 -4.12673607 38.72890144 -5.32339096 38.73270035 C-8.91329918 38.13571409 -10.06661496 37.06494311 -12.28312683 34.24050903 C-14.04634669 29.59207355 -13.54767849 24.26902557 -13.59562683 19.36550903 C-13.62463074 18.38453247 -13.65363464 17.40355591 -13.68351746 16.39285278 C-13.73665504 10.33516861 -13.37025359 6.82103668 -9.28312683 2.24050903 C-5.72236493 -0.13333224 -4.22360745 -0.00678491 0 0 Z " fill="#FDC700" transform="translate(18.283126831054688,280.7594909667969)"/>
<path d="M0 0 C1.5475152 0.00169304 3.09503521 0.00074128 4.64254761 -0.00265503 C8.83882174 -0.00437597 13.03406601 0.03088885 17.23010087 0.07278872 C21.61694502 0.11030689 26.00381302 0.11382191 30.39079285 0.12094116 C38.69589828 0.13958689 47.0005296 0.18881999 55.3054263 0.2490381 C64.76115985 0.31611191 74.21691608 0.3490944 83.67282832 0.37921071 C103.12224219 0.44191945 122.57121481 0.54744896 142.02026367 0.68115234 C141.06501396 2.43735397 140.10916984 4.19323229 139.15307617 5.94897461 C138.62085449 6.92681412 138.08863281 7.90465363 137.5402832 8.91212463 C135.15127564 13.26419249 132.64645138 17.54500134 130.14526367 21.83349609 C128.27151983 25.13716104 126.5798764 28.5219371 124.88745117 31.92163086 C124.34975098 33.00066177 123.81205078 34.07969269 123.25805664 35.19142151 C122.64534912 36.42383827 122.64534912 36.42383827 122.02026367 37.68115234 C111.06294019 37.81473961 100.10558406 37.94524195 89.14818287 38.07230377 C84.05450002 38.13145637 78.96083146 38.191488 73.8671875 38.25390625 C61.95907374 38.39928261 50.05096945 38.52574632 38.14239502 38.62695312 C33.96324207 38.66266385 29.78421298 38.70474191 25.60516357 38.75097656 C20.35157902 38.80804325 15.09808094 38.8491517 9.84427452 38.87913513 C7.86041672 38.89286915 5.87658738 38.91179592 3.8928318 38.93617249 C1.15223051 38.96886133 -1.58784631 38.98261238 -4.32861328 38.99169922 C-5.5385303 39.01253822 -5.5385303 39.01253822 -6.77289009 39.03379822 C-11.36358876 39.02542491 -14.35834287 38.5793912 -17.97973633 35.68115234 C-21.20514297 30.84304239 -20.38945696 25.55724868 -20.41723633 19.86865234 C-20.45010742 18.69238281 -20.48297852 17.51611328 -20.5168457 16.30419922 C-20.52393555 15.16402344 -20.53102539 14.02384766 -20.53833008 12.84912109 C-20.55178467 11.81037842 -20.56523926 10.77163574 -20.57910156 9.70141602 C-19.95583823 6.56072733 -19.11979147 4.37712235 -16.98914623 1.9565134 C-12.19126154 -1.08867678 -5.5198977 -0.08414147 0 0 Z " fill="#FECA00" transform="translate(58.979736328125,191.31884765625)"/>
<path d="M0 0 C65.34 0 130.68 0 198 0 C198 0.33 198 0.66 198 1 C193.38 1 188.76 1 184 1 C184 15.52 184 30.04 184 45 C175.75 45 167.5 45 159 45 C159 30.48 159 15.96 159 1 C154.05 1 149.1 1 144 1 C144 15.52 144 30.04 144 45 C135.75 45 127.5 45 119 45 C119 30.48 119 15.96 119 1 C114.05 1 109.1 1 104 1 C104 15.52 104 30.04 104 45 C95.75 45 87.5 45 79 45 C79 30.48 79 15.96 79 1 C74.05 1 69.1 1 64 1 C64 15.52 64 30.04 64 45 C56.08 45 48.16 45 40 45 C40 30.48 40 15.96 40 1 C34.72 1 29.44 1 24 1 C24 15.52 24 30.04 24 45 C16.08 45 8.16 45 0 45 C0 30.15 0 15.3 0 0 Z " fill="#FECD00" transform="translate(85,49)"/>
<path d="M0 0 C0.66 1.32 1.32 2.64 2 4 C2.55298641 3.51244075 3.10597282 3.0248815 3.6757164 2.52254772 C6.4467947 0.70732218 7.90308952 0.62926039 11.1885376 0.63923645 C12.23739136 0.63511246 13.28624512 0.63098846 14.36688232 0.6267395 C15.5119928 0.63752533 16.65710327 0.64831116 17.83691406 0.65942383 C19.65195435 0.65876671 19.65195435 0.65876671 21.50366211 0.65809631 C24.81758939 0.65982765 28.13095529 0.67486751 31.44478321 0.69581819 C34.90944068 0.7145784 38.37410572 0.7163349 41.83880615 0.71989441 C48.39778215 0.72921683 54.95660804 0.75383318 61.51551795 0.78394288 C68.98340389 0.81748083 76.45129701 0.83397136 83.91923952 0.84902918 C99.27957993 0.88038264 114.6397706 0.93314686 130 1 C130.19834442 1.87204575 130.39668884 2.74409149 130.6010437 3.64256287 C130.86531158 4.79748734 131.12957947 5.9524118 131.40185547 7.14233398 C131.66207489 8.28250473 131.92229431 9.42267548 132.19039917 10.59739685 C133.3486836 15.46545295 134.71699093 20.26182586 136.125 25.0625 C136.64897193 26.86573021 137.17243002 28.66910983 137.6953125 30.47265625 C137.92234863 31.24875244 138.14938477 32.02484863 138.38330078 32.82446289 C138.96442097 34.87448745 139.48801021 36.93184363 140 39 C122.46730671 39.09341015 104.934691 39.16396282 87.40180588 39.20724869 C79.26111283 39.22788061 71.12057433 39.2560131 62.97998047 39.30175781 C55.88525358 39.34160647 48.79063861 39.36742823 41.69580293 39.37635398 C37.93851765 39.38157214 34.18155255 39.3938493 30.42436981 39.42292023 C26.23166149 39.45509835 22.03951104 39.45596069 17.84667969 39.45410156 C15.97472679 39.47567322 15.97472679 39.47567322 14.06495667 39.49768066 C12.35284248 39.48943268 12.35284248 39.48943268 10.60614014 39.48101807 C9.11836626 39.48654882 9.11836626 39.48654882 7.60053635 39.49219131 C4.25319023 38.85865482 3.09238587 37.63661384 1 35 C-0.1687481 31.4937557 -0.12514267 28.3522134 -0.09765625 24.70703125 C-0.0962413 24.00100266 -0.09482635 23.29497406 -0.09336853 22.56755066 C-0.08777764 20.31582374 -0.07522688 18.06419679 -0.0625 15.8125 C-0.05748382 14.28450665 -0.05292112 12.75651173 -0.04882812 11.22851562 C-0.0378112 7.48563865 -0.02055287 3.74283627 0 0 Z " fill="#FDC600" transform="translate(39,325)"/>
<path d="M0 0 C0.66 1.32 1.32 2.64 2 4 C2.56316547 3.51244075 3.12633095 3.0248815 3.70656204 2.52254772 C6.33355026 0.77856555 7.58170899 0.62867096 10.69500732 0.63923645 C12.10421196 0.63305046 12.10421196 0.63305046 13.54188538 0.6267395 C14.56543625 0.63752533 15.58898712 0.64831116 16.64355469 0.65942383 C17.72678513 0.65898575 18.81001556 0.65854767 19.92607117 0.65809631 C23.50818882 0.66018711 27.08983905 0.68353257 30.671875 0.70703125 C33.1548029 0.71262615 35.63773411 0.71689675 38.1206665 0.71989441 C43.98904023 0.73018027 49.85724126 0.75382687 55.72554421 0.78394288 C63.06309614 0.82078066 70.40065795 0.83688101 77.73828125 0.85351562 C90.82560611 0.88569491 103.91279243 0.93632557 117 1 C117.30965698 1.59949463 117.61931396 2.19898926 117.93835449 2.81665039 C119.36160903 5.56711732 120.79013558 8.31481348 122.21875 11.0625 C122.70569336 12.00544922 123.19263672 12.94839844 123.69433594 13.91992188 C126.9134543 20.09976783 130.33648897 25.91974701 134.34375 31.625 C136.01608887 34.02307083 137.5076997 36.48709152 139 39 C121.74534569 39.09344503 104.49077036 39.16397994 87.23592091 39.20724869 C79.22417047 39.22787321 71.21257726 39.25599156 63.20092773 39.30175781 C56.21789259 39.34162913 49.23497132 39.36743362 42.25182551 39.37635398 C38.55430962 39.3815683 34.85711949 39.39382105 31.15970802 39.42292023 C27.03186218 39.45514342 22.90458253 39.45595923 18.77661133 39.45410156 C17.55093948 39.46848267 16.32526764 39.48286377 15.06245422 39.49768066 C6.80396376 39.45734994 6.80396376 39.45734994 2.76396179 37.15911865 C-0.41266254 33.27087749 -0.13365937 29.48167718 -0.09765625 24.70703125 C-0.0962413 24.00100266 -0.09482635 23.29497406 -0.09336853 22.56755066 C-0.08777764 20.31582374 -0.07522688 18.06419679 -0.0625 15.8125 C-0.05748382 14.28450665 -0.05292112 12.75651173 -0.04882812 11.22851562 C-0.0378112 7.48563865 -0.02055287 3.74283627 0 0 Z " fill="#FEC900" transform="translate(65,370)"/>
<path d="M0 0 C1.25908676 -0.00043808 1.25908676 -0.00043808 2.54360962 -0.00088501 C5.3140095 0.00050669 8.08413937 0.01606039 10.85449219 0.03173828 C12.77691501 0.03546898 14.69933973 0.03831568 16.62176514 0.04031372 C21.67868307 0.0479457 26.7354859 0.06759051 31.7923584 0.08972168 C36.95367882 0.11018944 42.11501787 0.11931743 47.27636719 0.12939453 C57.40141772 0.15083677 67.52638288 0.18496752 77.65136719 0.22705078 C77.39452148 1.24283203 77.13767578 2.25861328 76.87304688 3.30517578 C74.78496109 11.59181611 72.76897722 19.88740849 70.90136719 28.22705078 C70.57072266 29.69271484 70.57072266 29.69271484 70.23339844 31.18798828 C69.70440123 33.53397588 69.17704576 35.88031779 68.65136719 38.22705078 C58.28986582 38.34286371 47.92851822 38.431725 37.56650162 38.48611164 C32.75503948 38.51221374 27.94401991 38.5476228 23.1328125 38.60424805 C18.49030962 38.65854624 13.84823259 38.6884667 9.20543671 38.701437 C7.43354334 38.71068086 5.66167348 38.72873218 3.88996124 38.75570107 C1.40920016 38.79196368 -1.06979808 38.79699752 -3.55078125 38.79467773 C-4.28445923 38.81265411 -5.01813721 38.83063049 -5.77404785 38.84915161 C-9.53597924 38.81104996 -11.04658851 38.51676988 -13.80464172 35.8712616 C-15.63234727 32.74116661 -15.85120955 30.83497441 -15.84472656 27.22705078 C-15.84537109 26.09267578 -15.84601563 24.95830078 -15.84667969 23.78955078 C-15.82669922 22.61392578 -15.80671875 21.43830078 -15.78613281 20.22705078 C-15.79322266 19.05142578 -15.8003125 17.87580078 -15.80761719 16.66455078 C-15.73362867 6.64764335 -15.73362867 6.64764335 -12.34863281 2.22705078 C-8.58953421 -0.44297873 -4.418587 -0.0402289 0 0 Z " fill="#FDC500" transform="translate(100.3486328125,235.77294921875)"/>
<path d="M0 0 C7.9902638 -0.04196812 15.98012719 -0.08203566 23.97040558 -0.10350037 C27.69150012 -0.11405071 31.41250318 -0.12814404 35.13354492 -0.15087891 C38.71914893 -0.17264856 42.30466435 -0.1845773 45.89032936 -0.18975449 C47.25663459 -0.19344285 48.6229351 -0.20064534 49.9892025 -0.21146011 C51.90640895 -0.22602896 53.823705 -0.22681738 55.7409668 -0.22705078 C56.83128708 -0.231492 57.92160736 -0.23593323 59.04496765 -0.24050903 C62.97256385 0.07915663 65.86010045 0.95608049 68.78320312 3.63305664 C70.5071685 6.98655669 70.46773149 10.18344126 70.46875 13.87109375 C70.48017029 15.01010887 70.48017029 15.01010887 70.49182129 16.1721344 C70.50260565 17.77496052 70.50548213 19.37785682 70.50097656 20.98071289 C70.50000438 23.42649097 70.54163367 25.86912802 70.5859375 28.31445312 C70.59114514 29.87499348 70.59383268 31.4355447 70.59375 32.99609375 C70.61014526 33.72332138 70.62654053 34.45054901 70.64343262 35.19981384 C70.59387454 38.86091689 70.07377843 40.88904348 68.03588867 43.95385742 C63.89786642 46.74282119 60.72293046 46.74680406 55.83203125 46.7421875 C54.95600754 46.75968048 54.07998383 46.77717346 53.17741394 46.79519653 C50.38891531 46.84464621 47.60137208 46.85960383 44.8125 46.875 C42.92509329 46.90672928 41.03772067 46.94056037 39.15039062 46.9765625 C25.38117322 47.19058661 25.38117322 47.19058661 23 46 C21.26131256 45.84733388 19.51752499 45.75067404 17.7734375 45.68359375 C16.84450684 45.64548584 15.91557617 45.60737793 14.95849609 45.56811523 C13.77594238 45.52501221 12.59338867 45.48190918 11.375 45.4375 C7.62125 45.293125 3.8675 45.14875 0 45 C0 30.15 0 15.3 0 0 Z " fill="#FECE00" transform="translate(284,49)"/>
<path d="M0 0 C1.06793305 -0.00919759 2.1358661 -0.01839518 3.23616076 -0.02787149 C4.99469983 -0.0124408 4.99469983 -0.0124408 6.78876495 0.00330162 C8.03484386 -0.00152721 9.28092277 -0.00635604 10.56476164 -0.0113312 C14.02580319 -0.02066622 17.48596112 -0.01201283 20.94692206 0.00419736 C24.67840314 0.01734197 28.40983158 0.00745648 32.14131927 0.00043297 C39.45212784 -0.00965676 46.76275565 0.00163929 54.07354176 0.02013357 C62.58339517 0.04088836 71.09320935 0.04076154 79.60308331 0.03978841 C94.78468499 0.03878682 109.96620246 0.0571196 125.14777374 0.08615685 C139.88639612 0.11433238 154.62494437 0.12849841 169.36359406 0.12717247 C170.72517577 0.1270526 170.72517577 0.1270526 172.11426419 0.12693031 C173.02040048 0.1268496 173.92653677 0.12676889 174.86013174 0.12668574 C191.62871632 0.12530657 208.39726934 0.13708321 225.1658437 0.15499217 C231.1006529 0.16102913 237.03545631 0.1631518 242.97026825 0.16405678 C250.20070992 0.16542009 257.43109841 0.17433601 264.6615175 0.1927224 C268.35209502 0.20196594 272.04260447 0.20804661 275.73319435 0.20553398 C279.72971747 0.20294497 283.72610325 0.21581994 287.72260284 0.2303524 C288.89496223 0.2272552 290.06732162 0.22415799 291.27520704 0.22096694 C292.87710662 0.23064027 292.87710662 0.23064027 294.5113678 0.24050903 C295.43419823 0.24191788 296.35702867 0.24332673 297.30782366 0.24477828 C299.92813468 0.51560166 301.5440865 1.08402146 303.7556839 2.49777794 C304.95841209 4.90323432 304.85639862 6.44774747 304.8181839 9.12277794 C304.80916046 9.94004356 304.80013702 10.75730919 304.79084015 11.59934044 C304.77343781 12.539067 304.77343781 12.539067 304.7556839 13.49777794 C304.5081839 12.85840294 304.2606839 12.21902794 304.0056839 11.56027794 C302.97399153 9.36695725 302.97399153 9.36695725 301.0032019 8.87726051 C298.47794428 8.45088295 296.10741524 8.36855827 293.54539585 8.36355686 C292.48504629 8.35909902 291.42469673 8.35464117 290.33221537 8.35004824 C289.16832 8.35023261 288.00442463 8.35041697 286.8052597 8.35060692 C285.56805347 8.34693023 284.33084723 8.34325354 283.0561499 8.33946544 C279.62015013 8.33034524 276.18419809 8.3257304 272.74819076 8.32307613 C269.04328348 8.31917011 265.33838999 8.30959223 261.63349152 8.30086327 C252.68734343 8.28111107 243.74119423 8.2710359 234.79502979 8.26213548 C230.58325893 8.25775203 226.37148933 8.2523855 222.15971947 8.24714661 C208.16226112 8.23013838 194.16480356 8.21564246 180.16733646 8.20839787 C176.53589693 8.20648796 172.9044574 8.20456762 169.27301788 8.20261192 C168.37043517 8.20212818 167.46785245 8.20164444 166.53791874 8.20114604 C151.90452916 8.19283908 137.27122115 8.16748913 122.63786722 8.13503125 C107.61871998 8.10198868 92.59961424 8.0839518 77.58043045 8.08075362 C69.14571473 8.07858632 60.7111181 8.06980519 52.27643776 8.04429245 C45.09614925 8.022624 37.91600875 8.01451608 30.73569126 8.02425923 C27.07122112 8.02881471 23.40705663 8.02684579 19.7426281 8.00749779 C15.77265451 7.98671705 11.80310571 7.99681645 7.83309174 8.01003075 C6.09059476 7.99357688 6.09059476 7.99357688 4.31289583 7.97679061 C-1.92441402 7.9803888 -1.92441402 7.9803888 -7.49915409 10.52826214 C-8.07505755 11.17820235 -8.65096102 11.82814257 -9.2443161 12.49777794 C-9.7369477 5.10830401 -9.7369477 5.10830401 -7.54767179 2.3951 C-4.7727482 0.10933763 -3.54996645 -0.00167235 0 0 Z " fill="#FFA81D" transform="translate(9.244316101074219,94.50222206115723)"/>
<path d="M0 0 C5.115 -0.061875 10.23 -0.12375 15.5 -0.1875 C17.89668945 -0.22846802 17.89668945 -0.22846802 20.34179688 -0.27026367 C35.97547902 -0.36182113 35.97547902 -0.36182113 42.27734375 4.90234375 C43.09912109 5.90974609 43.09912109 5.90974609 43.9375 6.9375 C44.50339844 7.60652344 45.06929688 8.27554687 45.65234375 8.96484375 C48.76203044 13.66092133 48.82027951 19.56067081 48 25 C45.62951906 30.62442526 42.38191371 34.59620058 36.75585938 37.23681641 C30.26960038 39.03306425 23.1725274 38.39274812 16.5 38.25 C8.3325 38.12625 8.3325 38.12625 0 38 C0 25.46 0 12.92 0 0 Z " fill="#FFE26E" transform="translate(329,300)"/>
<path d="M0 0 C0 14.85 0 29.7 0 45 C-6.5896875 45.1546875 -6.5896875 45.1546875 -13.3125 45.3125 C-14.69477783 45.35802002 -16.07705566 45.40354004 -17.5012207 45.45043945 C-19.13450317 45.46917114 -19.13450317 45.46917114 -20.80078125 45.48828125 C-21.91622314 45.51446533 -23.03166504 45.54064941 -24.1809082 45.56762695 C-27 45 -27 45 -28.86035156 42.95385742 C-30.2558882 39.33676279 -30.44957432 36.07261862 -30.43359375 32.25 C-30.4388356 31.51426758 -30.44407745 30.77853516 -30.44947815 30.02050781 C-30.45587877 28.47071592 -30.45458677 26.92087532 -30.44604492 25.37109375 C-30.43752497 23.00692963 -30.46633447 20.64517635 -30.49804688 18.28125 C-30.49965894 16.77083405 -30.49908125 15.26041385 -30.49609375 13.75 C-30.50732773 13.0477832 -30.51856171 12.34556641 -30.53013611 11.62207031 C-30.48066042 8.11909583 -30.05570627 6.09139035 -28.21899414 3.078125 C-21.22760033 -3.46943184 -7.47763264 0 0 0 Z " fill="#FFCE00" transform="translate(69,49)"/>
<path d="M0 0 C7.92 0 15.84 0 24 0 C24 12.21 24 24.42 24 37 C16.08 37 8.16 37 0 37 C0 24.79 0 12.58 0 0 Z " fill="#FFCD00" transform="translate(85,326)"/>
<path d="M0 0 C7.92 0 15.84 0 24 0 C24 12.21 24 24.42 24 37 C16.08 37 8.16 37 0 37 C0 24.79 0 12.58 0 0 Z " fill="#FFCD00" transform="translate(51,282)"/>
<path d="M0 0 C7.92 0 15.84 0 24 0 C24 12.21 24 24.42 24 37 C16.08 37 8.16 37 0 37 C0 24.79 0 12.58 0 0 Z " fill="#FFCE00" transform="translate(131,237)"/>
<path d="M0 0 C7.92 0 15.84 0 24 0 C24 12.21 24 24.42 24 37 C16.08 37 8.16 37 0 37 C0 24.79 0 12.58 0 0 Z " fill="#FFCE00" transform="translate(85,102)"/>
<path d="M0 0 C4.32392847 -0.06903966 8.6459293 -0.12871715 12.9699707 -0.16479492 C14.43943782 -0.17984066 15.90886034 -0.20028238 17.37817383 -0.22631836 C19.4957177 -0.26288955 21.61266565 -0.27976801 23.73046875 -0.29296875 C25.63928833 -0.31653442 25.63928833 -0.31653442 27.58666992 -0.34057617 C31.27073713 0.02701368 33.08737346 0.76024883 36 3 C38.68408645 7.02612967 38.80610406 10.26816918 38 15 C36.07643127 18.57339883 33.9117746 20.69607513 30 22 C27.7161483 22.08378628 25.429899 22.10729915 23.14453125 22.09765625 C22.15207649 22.09553383 22.15207649 22.09553383 21.13957214 22.09336853 C19.03050172 22.08777996 16.92153823 22.07522965 14.8125 22.0625 C13.38086091 22.05748352 11.94922015 22.05292087 10.51757812 22.04882812 C7.01164461 22.038666 3.50594173 22.01908861 0 22 C0 14.74 0 7.48 0 0 Z " fill="#FFE26E" transform="translate(329,263)"/>
<path d="M0 0 C5.28 0 10.56 0 16 0 C16 15.18 16 30.36 16 46 C11.05 46.33 6.1 46.66 1 47 C0.06487566 44.19462697 -0.12182907 42.51834636 -0.11352539 39.62036133 C-0.11344986 38.73967484 -0.11337433 37.85898834 -0.11329651 36.95161438 C-0.10813522 36.00465195 -0.10297394 35.05768951 -0.09765625 34.08203125 C-0.0962413 33.10965012 -0.09482635 32.13726898 -0.09336853 31.13542175 C-0.08776817 28.02774996 -0.07521562 24.92015004 -0.0625 21.8125 C-0.05748505 19.70638125 -0.05292213 17.60026137 -0.04882812 15.49414062 C-0.03779862 10.32939936 -0.02053375 5.16471187 0 0 Z " fill="#FCBF00" transform="translate(308,49)"/>
<path d="M0 0 C5.28 0 10.56 0 16 0 C16 12.54 16 25.08 16 38 C10.72 38 5.44 38 0 38 C0 25.46 0 12.92 0 0 Z " fill="#FCBF00" transform="translate(135,371)"/>
<path d="M0 0 C5.28 0 10.56 0 16 0 C16 12.21 16 24.42 16 37 C10.72 37 5.44 37 0 37 C0 24.79 0 12.58 0 0 Z " fill="#FCBF00" transform="translate(109,192)"/>
<path d="M0 0 C5.28 0 10.56 0 16 0 C16 12.21 16 24.42 16 37 C10.72 37 5.44 37 0 37 C0 24.79 0 12.58 0 0 Z " fill="#FCBF00" transform="translate(166,147)"/>
<path d="M0 0 C5.28 0 10.56 0 16 0 C16 12.21 16 24.42 16 37 C10.72 37 5.44 37 0 37 C0 24.79 0 12.58 0 0 Z " fill="#FCBF00" transform="translate(126,147)"/>
<path d="M0 0 C1.32 0 2.64 0 4 0 C4.14695313 0.69480469 4.29390625 1.38960938 4.4453125 2.10546875 C6.29401584 10.48838219 8.57848718 18.69777423 11.01806641 26.92651367 C11.27378418 27.79896729 11.52950195 28.6714209 11.79296875 29.5703125 C12.0252417 30.35164551 12.25751465 31.13297852 12.49682617 31.93798828 C13 34 13 34 13 37 C8.71 37 4.42 37 0 37 C0 24.79 0 12.58 0 0 Z " fill="#FFCD00" transform="translate(165,326)"/>
<path d="M0 0 C3.39578147 3.39578147 6.07556105 6.75424532 8.75 10.6875 C9.16121094 11.28111328 9.57242188 11.87472656 9.99609375 12.48632812 C13 16.86245069 13 16.86245069 13 18 C8.71 18 4.42 18 0 18 C0 12.06 0 6.12 0 0 Z " fill="#FFCD00" transform="translate(191,391)"/>
<path d="M0 0 C3.96 0 7.92 0 12 0 C8.52220917 6.47030853 5.0493942 12.86806021 1 19 C0.67 19 0.34 19 0 19 C0 12.73 0 6.46 0 0 Z " fill="#FCBE00" transform="translate(189,192)"/>
<path d="M0 0 C2.31 0 4.62 0 7 0 C4.03 10.395 4.03 10.395 1 21 C0.67 21 0.34 21 0 21 C0 14.07 0 7.14 0 0 Z " fill="#FFCC01" transform="translate(171,237)"/>
</svg>
